<?xml version="1.0" encoding="UTF-8"?>
<svg version="1.1" xmlns="http://www.w3.org/2000/svg" width="400" height="400">
<path d="M0 0 C132 0 264 0 400 0 C400 132 400 264 400 400 C268 400 136 400 0 400 C0 268 0 136 0 0 Z " fill="#000000" transform="translate(0,0)"/>
<path d="M0 0 C-3.5572664 4.4619691 -7.32311756 8.24716122 -11.6171875 12.01171875 C-13.17567041 13.42171403 -14.72849919 14.83766171 -16.27929688 16.25610352 C-17.33763954 17.20547057 -18.41234463 18.13692577 -19.50292969 19.04907227 C-25.68015013 24.25000786 -29.53740167 28.9698774 -30.4960022 37.20056152 C-30.80944489 44.8866584 -29.56388949 50.4028312 -24.52218628 56.31764221 C-21.34082424 59.63223091 -17.95766238 62.66634649 -14.5 65.6875 C-13.09827423 66.98006569 -11.70108926 68.27757382 -10.30859375 69.58007812 C-7.78664053 71.93278416 -5.24012227 74.25070521 -2.66210938 76.54174805 C-1.78361328 77.35297119 -0.90511719 78.16419434 0 79 C0 79.33 0 79.66 0 80 C-9.8811844 82.06519931 -20.79433997 83.37349808 -29.78320312 77.89941406 C-40.60368226 70.45196325 -50.84770031 59.78483193 -54.5390625 46.953125 C-56.13947578 36.97572331 -54.16072989 28.6033327 -48.43936157 20.33889771 C-35.52117545 3.13404663 -21.87753215 -4.57247457 0 0 Z " fill="#FBFBFA" transform="translate(75,153)"/>
<path d="M0 0 C5.16484218 3.21406152 8.33691889 6.55249014 11.53515625 11.7109375 C7.70573636 15.04086784 3.15993403 16.76418275 -1.46484375 18.7109375 C-1.93535156 18.28941406 -2.40585938 17.86789063 -2.890625 17.43359375 C-3.51324219 16.88574219 -4.13585937 16.33789062 -4.77734375 15.7734375 C-5.69966797 14.95552734 -5.69966797 14.95552734 -6.640625 14.12109375 C-10.47111052 11.16005462 -14.82737189 11.23575063 -19.46484375 11.7109375 C-23.23910879 13.01741386 -25.12692386 14.34633972 -27.83984375 17.2734375 C-30.28199235 22.43952109 -30.53276734 27.32391357 -28.8046875 32.8046875 C-26.94432145 36.60595492 -24.54670735 38.94519388 -20.52734375 40.33984375 C-15.03855521 41.32740987 -10.1122806 40.75319347 -5.40234375 37.7734375 C-3.4206017 35.86115471 -3.4206017 35.86115471 -2.46484375 33.7109375 C1.29545475 34.29201382 4.06550657 35.36293246 7.34765625 37.2734375 C8.13785156 37.72847656 8.92804688 38.18351562 9.7421875 38.65234375 C10.33386719 39.00167969 10.92554688 39.35101563 11.53515625 39.7109375 C7.51176033 46.58423887 1.71180145 52.81754355 -6.0703125 55.2734375 C-16.41814305 57.16406886 -24.97932321 56.15646703 -33.61328125 50.23828125 C-40.28788936 44.99040164 -44.13190383 38.08557016 -45.46484375 29.7109375 C-46.04422874 21.02016262 -43.99300139 13.58378214 -38.46484375 6.7109375 C-27.8178355 -4.79388659 -13.88958048 -7.26396443 0 0 Z " fill="#FAFAFA" transform="translate(142.46484375,168.2890625)"/>
<path d="M0 0 C11.88 0 23.76 0 36 0 C36 4.29 36 8.58 36 13 C28.74 13 21.48 13 14 13 C14 16.3 14 19.6 14 23 C20.27 23 26.54 23 33 23 C33 27.29 33 31.58 33 36 C26.73 36 20.46 36 14 36 C14 43.26 14 50.52 14 58 C9.38 58 4.76 58 0 58 C0 38.86 0 19.72 0 0 Z " fill="#FCFCFC" transform="translate(276,165)"/>
<path d="M0 0 C4.70493651 2.81899149 7.59954963 6.31682772 9.8125 11.375 C10.5 14.375 10.5 14.375 10.5 20.375 C0.93 20.375 -8.64 20.375 -18.5 20.375 C-16.84922098 24.12670424 -16.84922098 24.12670424 -14.5 27.375 C-10.46916989 27.69960261 -10.46916989 27.69960261 -6.5 27.375 C-5.84 26.385 -5.18 25.395 -4.5 24.375 C-1.2421875 24.08203125 -1.2421875 24.08203125 2.625 24.1875 C4.54699219 24.22810547 4.54699219 24.22810547 6.5078125 24.26953125 C7.49523437 24.30433594 8.48265625 24.33914062 9.5 24.375 C8.74051424 29.14198507 7.06114401 32.12230154 3.5 35.375 C-2.89952839 39.45980535 -10.11131085 39.14287763 -17.5 38.375 C-22.91226433 36.8069608 -26.95493953 33.75419234 -30.5 29.375 C-33.58302714 23.20894573 -33.51582319 15.54197818 -31.4375 9.0625 C-24.13633462 -1.06492295 -11.87863881 -5.43023488 0 0 Z " fill="#FBFBFB" transform="translate(203.5,185.625)"/>
<path d="M0 0 C4.62 0 9.24 0 14 0 C14 12.54 14 25.08 14 38 C9.38 38 4.76 38 0 38 C0 25.46 0 12.92 0 0 Z " fill="#FEFEFE" transform="translate(330,185)"/>
<path d="M0 0 C21.08946057 -2.86714721 21.08946057 -2.86714721 28.99804688 1.75048828 C34.73350173 6.40824257 39.75310967 11.95081573 44 18 C44 18.33 44 18.66 44 19 C22.91053943 21.86714721 22.91053943 21.86714721 15.00195312 17.24951172 C9.26649827 12.59175743 4.24689033 7.04918427 0 1 C0 0.67 0 0.34 0 0 Z " fill="#F5A01C" transform="translate(66,214)"/>
<path d="M0 0 C-0.37801758 0.43062744 -0.75603516 0.86125488 -1.14550781 1.30493164 C-3.68163904 4.22386763 -6.11647219 7.11280728 -8.296875 10.30859375 C-12.03029881 15.07049259 -14.92015155 18.464818 -21.09375 19.53759766 C-28.74591488 20.04925001 -36.36743961 19.66178269 -44 19 C-43.62198242 18.56937256 -43.24396484 18.13874512 -42.85449219 17.69506836 C-40.31836096 14.77613237 -37.88352781 11.88719272 -35.703125 8.69140625 C-26.32451226 -3.27080522 -14.1140834 -1.22376446 0 0 Z " fill="#F69F1E" transform="translate(110,153)"/>
<path d="M0 0 C3.04386724 -0.08226668 5.07175348 0.02391783 8 1 C10.63804589 0.60602665 10.63804589 0.60602665 13 0 C13.48210937 0.55429688 13.96421875 1.10859375 14.4609375 1.6796875 C15.09257813 2.40414062 15.72421875 3.12859375 16.375 3.875 C17.00148437 4.59429687 17.62796875 5.31359375 18.2734375 6.0546875 C19.47426834 7.4076598 20.7208345 8.7208345 22 10 C22.875 11.875 22.875 11.875 23 14 C21.0625 16.25 21.0625 16.25 19 18 C19.66 18.33 20.32 18.66 21 19 C20.505 20.485 20.505 20.485 20 22 C19.62117676 21.49025635 19.24235352 20.9805127 18.85205078 20.45532227 C10.88940735 10.07138059 10.88940735 10.07138059 -0.35693359 4.09667969 C-7.89908164 3.14731839 -15.43728809 3.36417749 -23 4 C-22.67 3.34 -22.34 2.68 -22 2 C-15.07 2 -8.14 2 -1 2 C-0.67 1.34 -0.34 0.68 0 0 Z " fill="#080406" transform="translate(89,210)"/>
<path d="M0 0 C2.31 0.66 4.62 1.32 7 2 C2.01014324 8.04035292 -3.42202716 13.49740517 -9 19 C-0.75 19.33 7.5 19.66 16 20 C12.83787269 22.10808488 12.20456912 22.23332801 8.62109375 22.125 C7.36329102 22.10179687 7.36329102 22.10179687 6.08007812 22.078125 C5.20802734 22.05234375 4.33597656 22.0265625 3.4375 22 C1.707279 21.9490737 -0.0232313 21.90697552 -1.75390625 21.875 C-2.52033447 21.85179687 -3.2867627 21.82859375 -4.07641602 21.8046875 C-6.24113106 21.81975745 -6.24113106 21.81975745 -8 24 C-8 23.34 -8 22.68 -8 22 C-8.928125 22 -9.85625 22 -10.8125 22 C-17 22 -17 22 -20 20 C-13.4 13.4 -6.8 6.8 0 0 Z " fill="#080306" transform="translate(76,152)"/>
<path d="M0 0 C2.9375 2.0625 2.9375 2.0625 5 5 C5.06641554 8.85210127 4.87229157 10.99848005 2.3125 13.9375 C-0.73602877 15.33817538 -2.67926952 15.4842732 -6 15 C-8.375 13.4375 -8.375 13.4375 -10 11 C-10.56783945 7.02512383 -10.62340519 4.93510779 -8.375 1.5625 C-5.24316508 -0.49791771 -3.68455227 -0.6767545 0 0 Z " fill="#F7F7F7" transform="translate(340,163)"/>
<path d="M0 0 C2.93456406 0.95692306 4.1605743 1.41097792 5.875 3.9375 C6.75 6.3125 6.75 6.3125 6.875 8.9375 C4.68097015 13.53451493 4.68097015 13.53451493 1.875 14.9375 C-1.66731061 15.32253376 -3.48757342 15.35685959 -6.5 13.375 C-8.76413895 9.97879157 -8.76769755 7.93650698 -8.125 3.9375 C-5.45043116 0.79094842 -4.15592269 -0.08311845 0 0 Z " fill="#FAFAFA" transform="translate(244.125,209.0625)"/>
<path d="M0 0 C9.57 0 19.14 0 29 0 C28.01 0.495 28.01 0.495 27 1 C26.67 1.99 26.34 2.98 26 4 C22.04 4 18.08 4 14 4 C13.34 5.32 12.68 6.64 12 8 C4.5942492 8.36421725 4.5942492 8.36421725 2.0625 6.8125 C1 5 1 5 0 0 Z " fill="#0A0A0A" transform="translate(185,206)"/>
<path d="M0 0 C21.08946057 -2.86714721 21.08946057 -2.86714721 28.99804688 1.75048828 C34.73350173 6.40824257 39.75310967 11.95081573 44 18 C44 18.33 44 18.66 44 19 C39.72939382 19.11589162 35.45919016 19.18714802 31.1875 19.25 C29.97255859 19.28351563 28.75761719 19.31703125 27.50585938 19.3515625 C25.76079102 19.37089844 25.76079102 19.37089844 23.98046875 19.390625 C22.37014771 19.4220459 22.37014771 19.4220459 20.72729492 19.45410156 C18 19 18 19 16.1262207 16.97558594 C15.75456787 16.32364258 15.38291504 15.67169922 15 15 C15.63292969 15.16371094 16.26585938 15.32742187 16.91796875 15.49609375 C21.06751093 16.17453601 25.11641498 16.10555375 29.3125 16.0625 C30.14845703 16.05798828 30.98441406 16.05347656 31.84570312 16.04882812 C33.89716649 16.03710548 35.94859273 16.01917203 38 16 C37.20882096 14.00016466 37.20882096 14.00016466 36 12 C35.01 11.67 34.02 11.34 33 11 C33 10.34 33 9.68 33 9 C32.401875 8.731875 31.80375 8.46375 31.1875 8.1875 C28.26040485 6.59850549 26.4905219 4.98104381 25 2 C18.07 2 11.14 2 4 2 C4.66 3.32 5.32 4.64 6 6 C3.97945196 4.35830472 1.97956942 2.69088222 0 1 C0 0.67 0 0.34 0 0 Z " fill="#D99C4B" transform="translate(66,214)"/>
<path d="M0 0 C3.56187657 -0.17479953 7.12264773 -0.28101143 10.6875 -0.375 C12.19860352 -0.45041016 12.19860352 -0.45041016 13.74023438 -0.52734375 C21.09943646 -0.67307052 21.09943646 -0.67307052 23.82275391 1.36230469 C25.20703125 3.0234375 25.20703125 3.0234375 27 6 C24 8 24 8 21.8125 7.625 C21.214375 7.41875 20.61625 7.2125 20 7 C20.33 5.35 20.66 3.7 21 2 C17.7 1.67 14.4 1.34 11 1 C11 1.66 11 2.32 11 3 C11.99 3.33 12.98 3.66 14 4 C11 6 11 6 8 6 C8.33 6.66 8.66 7.32 9 8 C9.99 8.33 10.98 8.66 12 9 C12.33 10.65 12.66 12.3 13 14 C6.41809845 11.4684994 2.88975264 6.13965248 0 0 Z " fill="#F69F24" transform="translate(69,215)"/>
<path d="M0 0 C3.91442413 0.27309936 5.7026101 0.74992213 8.75 3.3125 C11 6 11 6 11.9375 8.0625 C12.99268696 10.34430308 12.99268696 10.34430308 16.125 12.0625 C17.07375 12.701875 18.0225 13.34125 19 14 C19 14.99 19 15.98 19 17 C16.69 17 14.38 17 12 17 C11.77570313 16.44441406 11.55140625 15.88882813 11.3203125 15.31640625 C9.03751489 11.31137968 5.44915072 8.47830769 2.1171875 5.33984375 C0 3 0 3 0 0 Z " fill="#040509" transform="translate(63,218)"/>
<path d="M0 0 C0.33 0.66 0.66 1.32 1 2 C0.67 2.66 0.34 3.32 0 4 C0.66 4.33 1.32 4.66 2 5 C1.67 5.66 1.34 6.32 1 7 C-1.0625 7.625 -1.0625 7.625 -3 8 C-3 8.99 -3 9.98 -3 11 C4.425 11.99 4.425 11.99 12 13 C12.33 12.01 12.66 11.02 13 10 C13.99 10.33 14.98 10.66 16 11 C14.8737793 12.48168945 14.8737793 12.48168945 13 14 C10.27270508 14.34057617 10.27270508 14.34057617 7.01953125 14.29296875 C5.85615234 14.28330078 4.69277344 14.27363281 3.49414062 14.26367188 C2.27919922 14.23853516 1.06425781 14.21339844 -0.1875 14.1875 C-1.41404297 14.17396484 -2.64058594 14.16042969 -3.90429688 14.14648438 C-6.93663664 14.11108741 -9.96809996 14.0617076 -13 14 C-9.81968878 10.2341894 -6.64858175 6.51561011 -3.125 3.0625 C-2.23167969 2.18271484 -2.23167969 2.18271484 -1.3203125 1.28515625 C-0.66675781 0.64900391 -0.66675781 0.64900391 0 0 Z " fill="#EAA03A" transform="translate(79,158)"/>
<path d="M0 0 C0.9075 0.7425 1.815 1.485 2.75 2.25 C3.40871094 2.78496094 4.06742187 3.31992188 4.74609375 3.87109375 C7 6 7 6 9.22265625 9.03515625 C12.85233284 13.79305257 16.02200179 17.38293731 22.08935547 18.64013672 C29.71590197 19.42264937 37.34844351 19.34362259 45 19 C40.92982505 21.26536251 37.13664844 21.40234621 32.5625 21.5625 C25.72997489 21.83147256 25.72997489 21.83147256 19 23 C18.443125 22.071875 17.88625 21.14375 17.3125 20.1875 C14.98049194 16.97311051 13.33000031 15.96384634 10 14 C8.96210419 12.35666496 7.96432076 10.68756133 7 9 C6.154375 8.154375 5.30875 7.30875 4.4375 6.4375 C2.24539919 4.24539919 1.25980215 2.74602035 0 0 Z " fill="#1D0300" transform="translate(65,214)"/>
<path d="M0 0 C1.16015625 0.01289063 2.3203125 0.02578125 3.515625 0.0390625 C4.7221875 0.07257813 5.92875 0.10609375 7.171875 0.140625 C9.00492188 0.16769531 9.00492188 0.16769531 10.875 0.1953125 C13.89141578 0.242444 16.90624991 0.30823087 19.921875 0.390625 C18.96765692 1.53988766 18.00835455 2.68493041 17.046875 3.828125 C16.51320313 4.46621094 15.97953125 5.10429687 15.4296875 5.76171875 C13.921875 7.390625 13.921875 7.390625 11.921875 8.390625 C11.921875 6.740625 11.921875 5.090625 11.921875 3.390625 C9.31743152 3.33667795 6.71410502 3.29698031 4.109375 3.265625 C3.00239258 3.24048828 3.00239258 3.24048828 1.87304688 3.21484375 C-1.99058926 3.17987872 -3.78716168 3.19664945 -7.078125 5.390625 C-8.068125 5.060625 -9.058125 4.730625 -10.078125 4.390625 C-6.88800725 0.5005658 -4.97874191 -0.09762239 0 0 Z " fill="#DDA253" transform="translate(90.078125,152.609375)"/>
<path d="M0 0 C2.64 0 5.28 0 8 0 C7.34 1.32 6.68 2.64 6 4 C6.66 4.33 7.32 4.66 8 5 C8.33 5.99 8.66 6.98 9 8 C9.99 8.33 10.98 8.66 12 9 C12.33 10.65 12.66 12.3 13 14 C7.5451487 11.90198027 3.89533461 7.6116023 1.125 2.625 C0.75375 1.75875 0.3825 0.8925 0 0 Z " fill="#EF9F2C" transform="translate(69,215)"/>
<path d="M0 0 C-5.27101414 6.41069287 -11.09128152 12.18590512 -17 18 C-17.66 17.34 -18.32 16.68 -19 16 C-17.68 15.34 -16.36 14.68 -15 14 C-15 13.34 -15 12.68 -15 12 C-13.125 9.875 -13.125 9.875 -11 8 C-10.34 8 -9.68 8 -9 8 C-8.71125 6.865625 -8.4225 5.73125 -8.125 4.5625 C-7.75375 3.386875 -7.3825 2.21125 -7 1 C-4.53721199 -0.231394 -2.7204945 -0.07159196 0 0 Z " fill="#190300" transform="translate(83,154)"/>
<path d="M0 0 C4.39697976 0.02281937 8.79136575 0.10015958 13.1875 0.1875 C14.43337891 0.19330078 15.67925781 0.19910156 16.96289062 0.20507812 C27.26900833 0.45375121 27.26900833 0.45375121 30.36328125 3.42578125 C32 6 32 6 32 8 C32.66 8 33.32 8 34 8 C33.67 8.99 33.34 9.98 33 11 C32.57912109 10.43410156 32.15824219 9.86820313 31.72460938 9.28515625 C28.75437483 5.77515945 26.46039417 3.35543011 21.90234375 2.24609375 C18.41431475 1.99146359 14.99662002 1.94236341 11.5 2 C10.29601562 1.98839844 9.09203125 1.97679687 7.8515625 1.96484375 C4.89929409 1.94141305 1.95186777 1.95407639 -1 2 C-0.67 1.34 -0.34 0.68 0 0 Z " fill="#170300" transform="translate(67,212)"/>
<path d="M0 0 C0 0.99 0 1.98 0 3 C6.93 3.33 13.86 3.66 21 4 C21.33 3.01 21.66 2.02 22 1 C22.99 1.33 23.98 1.66 25 2 C23.8737793 3.48168945 23.8737793 3.48168945 22 5 C19.27270508 5.34057617 19.27270508 5.34057617 16.01953125 5.29296875 C14.85615234 5.28330078 13.69277344 5.27363281 12.49414062 5.26367188 C11.27919922 5.23853516 10.06425781 5.21339844 8.8125 5.1875 C7.58595703 5.17396484 6.35941406 5.16042969 5.09570312 5.14648438 C2.06336336 5.11108741 -0.96809996 5.0617076 -4 5 C-2.68 3.35 -1.36 1.7 0 0 Z " fill="#DCA254" transform="translate(70,167)"/>
<path d="M0 0 C0.66 0.99 1.32 1.98 2 3 C-1.96 3 -5.92 3 -10 3 C-9.67 2.01 -9.34 1.02 -9 0 C-5.46474216 -1.17841928 -3.5797952 -0.91399027 0 0 Z " fill="#0B0B0B" transform="translate(197,195)"/>
<path d="M0 0 C0.33 0.66 0.66 1.32 1 2 C1.99 2.33 2.98 2.66 4 3 C0.82679218 6.53586014 -1.16743695 8.58578031 -6 9 C-6.33 8.01 -6.66 7.02 -7 6 C-3.535 5.505 -3.535 5.505 0 5 C0 3.35 0 1.7 0 0 Z " fill="#E29E2F" transform="translate(97,160)"/>
<path d="M0 0 C1.32 0 2.64 0 4 0 C4.33 0.66 4.66 1.32 5 2 C5.99 2.33 6.98 2.66 8 3 C8.33 4.65 8.66 6.3 9 8 C4.7257442 6.4169423 2.73468206 3.49431596 0 0 Z " fill="#E8A040" transform="translate(73,221)"/>
<path d="M0 0 C0.66 0.33 1.32 0.66 2 1 C1.8125 2.875 1.8125 2.875 1 5 C-1.4375 6.3125 -1.4375 6.3125 -4 7 C-4.66 6.67 -5.32 6.34 -6 6 C-4.02 4.02 -2.04 2.04 0 0 Z " fill="#F8F7ED" transform="translate(110,169)"/>
<path d="M0 0 C0.66 0.33 1.32 0.66 2 1 C0.02 3.31 -1.96 5.62 -4 8 C-4.66 7.01 -5.32 6.02 -6 5 C-4.00856305 2.01284458 -3.23356015 1.21258505 0 0 Z " fill="#080410" transform="translate(69,208)"/>
<path d="M0 0 C0.66 0.66 1.32 1.32 2 2 C-0.97 4.475 -0.97 4.475 -4 7 C-4 5.02 -4 3.04 -4 1 C-2.125 0.375 -2.125 0.375 0 0 Z " fill="#DD973F" transform="translate(106,154)"/>
<path d="M0 0 C0.66 0.33 1.32 0.66 2 1 C2 2.32 2 3.64 2 5 C1.01 5.33 0.02 5.66 -1 6 C-1.33 4.35 -1.66 2.7 -2 1 C-1.34 0.67 -0.68 0.34 0 0 Z " fill="#0B0B0B" transform="translate(252,217)"/>
<path d="M0 0 C0.99 0.33 1.98 0.66 3 1 C1.68 2.65 0.36 4.3 -1 6 C-1.99 5.67 -2.98 5.34 -4 5 C-3.34 4.67 -2.68 4.34 -2 4 C-2 3.34 -2 2.68 -2 2 C-1.34 2 -0.68 2 0 2 C0 1.34 0 0.68 0 0 Z " fill="#F0F0F0" transform="translate(46,178)"/>
</svg>
